<mxfile host="app.diagrams.net" agent="Mozilla/5.0 (Windows NT 10.0; Win64; x64) AppleWebKit/537.36 (KHTML, like Gecko) Chrome/132.0.0.0 Safari/537.36" version="26.0.7">
  <diagram name="PÃ¡gina-1" id="R0nLxPjaxTXXxvtiQzR1">
    <mxGraphModel dx="1434" dy="744" grid="1" gridSize="10" guides="1" tooltips="1" connect="1" arrows="1" fold="1" page="1" pageScale="1" pageWidth="827" pageHeight="1169" math="0" shadow="0">
      <root>
        <mxCell id="0" />
        <mxCell id="1" parent="0" />
        <mxCell id="1RIKbaksWW-ZCpQwUyDl-5" value="" style="whiteSpace=wrap;html=1;aspect=fixed;fillColor=none;" vertex="1" parent="1">
          <mxGeometry x="440" y="100" width="490" height="490" as="geometry" />
        </mxCell>
        <mxCell id="1RIKbaksWW-ZCpQwUyDl-8" style="edgeStyle=orthogonalEdgeStyle;rounded=0;orthogonalLoop=1;jettySize=auto;html=1;" edge="1" parent="1" source="1RIKbaksWW-ZCpQwUyDl-1" target="1RIKbaksWW-ZCpQwUyDl-4">
          <mxGeometry relative="1" as="geometry" />
        </mxCell>
        <mxCell id="1RIKbaksWW-ZCpQwUyDl-1" value="" style="image;points=[];aspect=fixed;html=1;align=center;shadow=0;dashed=0;image=img/lib/allied_telesis/computer_and_terminals/Personal_Computer.svg;" vertex="1" parent="1">
          <mxGeometry x="83.77000000000001" y="310" width="118.06" height="160" as="geometry" />
        </mxCell>
        <mxCell id="1RIKbaksWW-ZCpQwUyDl-18" style="edgeStyle=orthogonalEdgeStyle;rounded=0;orthogonalLoop=1;jettySize=auto;html=1;" edge="1" parent="1" source="1RIKbaksWW-ZCpQwUyDl-2" target="1RIKbaksWW-ZCpQwUyDl-3">
          <mxGeometry relative="1" as="geometry" />
        </mxCell>
        <mxCell id="1RIKbaksWW-ZCpQwUyDl-2" value="" style="image;aspect=fixed;perimeter=ellipsePerimeter;html=1;align=center;shadow=0;dashed=0;spacingTop=3;image=img/lib/active_directory/windows_server_2.svg;" vertex="1" parent="1">
          <mxGeometry x="640" y="160" width="100" height="125" as="geometry" />
        </mxCell>
        <mxCell id="1RIKbaksWW-ZCpQwUyDl-19" style="edgeStyle=orthogonalEdgeStyle;rounded=0;orthogonalLoop=1;jettySize=auto;html=1;" edge="1" parent="1" source="1RIKbaksWW-ZCpQwUyDl-3" target="1RIKbaksWW-ZCpQwUyDl-12">
          <mxGeometry relative="1" as="geometry" />
        </mxCell>
        <mxCell id="1RIKbaksWW-ZCpQwUyDl-3" value="" style="points=[];aspect=fixed;html=1;align=center;shadow=0;dashed=0;fillColor=#FF6A00;strokeColor=none;shape=mxgraph.alibaba_cloud.miniappdev;" vertex="1" parent="1">
          <mxGeometry x="640" y="315.8" width="69.2" height="50.21" as="geometry" />
        </mxCell>
        <mxCell id="1RIKbaksWW-ZCpQwUyDl-4" value="" style="sketch=0;pointerEvents=1;shadow=0;dashed=0;html=1;strokeColor=none;fillColor=#505050;labelPosition=center;verticalLabelPosition=bottom;verticalAlign=top;outlineConnect=0;align=center;shape=mxgraph.office.devices.printer;" vertex="1" parent="1">
          <mxGeometry x="114.8" y="199" width="56" height="47" as="geometry" />
        </mxCell>
        <mxCell id="1RIKbaksWW-ZCpQwUyDl-7" style="edgeStyle=orthogonalEdgeStyle;rounded=0;orthogonalLoop=1;jettySize=auto;html=1;" edge="1" parent="1" source="1RIKbaksWW-ZCpQwUyDl-5" target="1RIKbaksWW-ZCpQwUyDl-1">
          <mxGeometry relative="1" as="geometry" />
        </mxCell>
        <mxCell id="1RIKbaksWW-ZCpQwUyDl-9" value="" style="points=[];aspect=fixed;html=1;align=center;shadow=0;dashed=0;fillColor=#FF6A00;strokeColor=none;shape=mxgraph.alibaba_cloud.miniappdev;" vertex="1" parent="1">
          <mxGeometry x="129.46" y="366.01" width="41.34" height="30" as="geometry" />
        </mxCell>
        <mxCell id="1RIKbaksWW-ZCpQwUyDl-10" value="" style="sketch=0;pointerEvents=1;shadow=0;dashed=0;html=1;strokeColor=none;fillColor=#505050;labelPosition=center;verticalLabelPosition=bottom;verticalAlign=top;outlineConnect=0;align=center;shape=mxgraph.office.devices.printer;" vertex="1" parent="1">
          <mxGeometry x="480" y="330" width="56" height="47" as="geometry" />
        </mxCell>
        <mxCell id="1RIKbaksWW-ZCpQwUyDl-11" value="IMPRESSORA USB001" style="text;html=1;align=center;verticalAlign=middle;whiteSpace=wrap;rounded=0;" vertex="1" parent="1">
          <mxGeometry x="72.8" y="169" width="140" height="30" as="geometry" />
        </mxCell>
        <mxCell id="1RIKbaksWW-ZCpQwUyDl-17" style="edgeStyle=orthogonalEdgeStyle;rounded=0;orthogonalLoop=1;jettySize=auto;html=1;" edge="1" parent="1" source="1RIKbaksWW-ZCpQwUyDl-12" target="1RIKbaksWW-ZCpQwUyDl-10">
          <mxGeometry relative="1" as="geometry" />
        </mxCell>
        <mxCell id="1RIKbaksWW-ZCpQwUyDl-12" value="" style="sketch=0;pointerEvents=1;shadow=0;dashed=0;html=1;strokeColor=none;fillColor=#505050;labelPosition=center;verticalLabelPosition=bottom;verticalAlign=top;outlineConnect=0;align=center;shape=mxgraph.office.devices.printer;" vertex="1" parent="1">
          <mxGeometry x="646.6" y="480" width="56" height="47" as="geometry" />
        </mxCell>
        <mxCell id="1RIKbaksWW-ZCpQwUyDl-13" value="IMPRESSORA TS001&lt;div&gt;(USB001)&lt;/div&gt;" style="text;html=1;align=center;verticalAlign=middle;whiteSpace=wrap;rounded=0;" vertex="1" parent="1">
          <mxGeometry x="440" y="285.8" width="140" height="30" as="geometry" />
        </mxCell>
        <mxCell id="1RIKbaksWW-ZCpQwUyDl-14" value="VIRTUAL LPT1&lt;div&gt;(TS001)&lt;/div&gt;" style="text;html=1;align=center;verticalAlign=middle;whiteSpace=wrap;rounded=0;" vertex="1" parent="1">
          <mxGeometry x="604.6" y="540" width="140" height="30" as="geometry" />
        </mxCell>
        <mxCell id="1RIKbaksWW-ZCpQwUyDl-21" value="" style="endArrow=classic;html=1;rounded=0;" edge="1" parent="1">
          <mxGeometry width="50" height="50" relative="1" as="geometry">
            <mxPoint x="180" y="250" as="sourcePoint" />
            <mxPoint x="420" y="330" as="targetPoint" />
          </mxGeometry>
        </mxCell>
        <mxCell id="1RIKbaksWW-ZCpQwUyDl-22" value="" style="endArrow=classic;html=1;rounded=0;" edge="1" parent="1">
          <mxGeometry width="50" height="50" relative="1" as="geometry">
            <mxPoint x="420" y="320" as="sourcePoint" />
            <mxPoint x="190" y="240" as="targetPoint" />
          </mxGeometry>
        </mxCell>
      </root>
    </mxGraphModel>
  </diagram>
</mxfile>
